<?xml version="1.0" standalone="no"?>
<!DOCTYPE svg PUBLIC "-//W3C//DTD SVG 20010904//EN"
 "http://www.w3.org/TR/2001/REC-SVG-20010904/DTD/svg10.dtd">
<svg version="1.0" xmlns="http://www.w3.org/2000/svg"
 width="126.000000pt" height="126.000000pt" viewBox="0 0 126.000000 126.000000"
 preserveAspectRatio="xMidYMid meet">
<metadata>
Created by potrace 1.11, written by Peter Selinger 2001-2013
</metadata>
<g transform="translate(0.000000,126.000000) scale(0.100000,-0.100000)"
fill="#000000" stroke="none">
<path d="M119 1186 c-2 -2 -30 -6 -62 -8 l-57 -3 0 -52 0 -53 33 0 c17 0 56
-3 84 -6 l53 -6 -4 63 c-3 54 -6 64 -22 67 -11 2 -22 1 -25 -2z"/>
<path d="M215 1053 c3 -65 7 -165 10 -223 l5 -105 88 -82 c99 -93 92 -96 113
42 7 50 13 92 14 95 21 89 18 105 -38 216 -54 107 -56 109 -117 142 -34 17
-66 32 -71 32 -6 0 -8 -45 -4 -117z"/>
<path d="M680 1039 c-47 -39 -131 -121 -128 -125 3 -2 176 -15 228 -16 26 -1
23 12 -18 82 -26 44 -49 79 -52 79 -3 0 -16 -9 -30 -20z"/>
<path d="M495 814 c-4 -31 -8 -66 -10 -78 -14 -89 -27 -175 -30 -196 -5 -35
-17 -111 -21 -135 -2 -10 -6 -37 -9 -60 -3 -22 -8 -51 -10 -65 -2 -14 -7 -45
-10 -70 -3 -25 -8 -58 -11 -75 -4 -20 -3 -27 4 -20 15 16 414 726 410 730 -2
3 -44 7 -93 10 -50 3 -118 8 -151 10 l-62 4 -7 -55z"/>
<path d="M890 818 c0 -13 5 -43 11 -68 6 -25 12 -54 15 -65 16 -82 36 -166 40
-162 13 13 94 233 90 243 -6 15 -87 58 -128 68 -24 6 -28 3 -28 -16z"/>
<path d="M823 769 c-33 -56 -173 -306 -173 -310 0 -3 60 -4 133 -4 110 0 132
3 130 15 -3 19 -63 312 -66 324 -2 5 -12 -6 -24 -25z"/>
<path d="M1041 607 c-25 -61 -50 -126 -57 -143 -12 -30 -11 -33 112 -195 69
-90 129 -171 134 -179 5 -8 11 -13 14 -10 10 11 -91 525 -111 565 -45 86 -44
86 -92 -38z"/>
</g>
</svg>
