<svg width="178" height="32" fill="none" xmlns="http://www.w3.org/2000/svg"><path d="M29.45 19.97c-.34 0-3.83-4.8-5.07-5.47-1.23-.65-3.12-.78-4.7-1.97l-2.15-1.38a91.5 91.5 0 0 0-4.12-2.6l-.14-.08h-.01a2.23 2.23 0 0 0-.07-.05C10.75 6.97 8.27 5.58 5.85 4.1c-1.06-.65-2.11-1.35-3.16-2.04C1.77 1.45.86.78.01 0c-.12 2.28.76 4.73 2.05 6.66a15.25 15.25 0 0 0 5.36 4.76c2.53 1.44 7.3 2.18 10.01 4.9-2.92-.85-5.86-1.55-8.78-2.38-.95-.27-1.9-.58-2.86-.87-.84-.26-1.67-.56-2.48-.95.28 1.46 1.45 2.82 2.73 3.93 1.11.96 3.5 1.72 5.02 2.16 2.25.64 6.6.96 8.65 2.43-2.12-.17-4.24-.24-6.36-.4L11.06 20c-.66-.07-1.34-.17-2-.34.34 1.09 1.34 1.98 2.43 2.61 1.26.75 2.69.96 4.15 1.03 1.8.09 5.28-1.1 7.78.63-1.93.64-3.86 1.43-5.7 2.08-.56.19-1.11.37-1.67.54-.49.16-.98.3-1.47.38.4.67 1.24 1 2.1 1.11 1.02.14 2.05-.18 3.16-.39 2.24-.4 6.1-2.8 8.02-2.28v.05c-1.67 1.23-2.88 2.8-4.3 4.13l-.94.84a6.3 6.3 0 0 1-.92.67c.86.26 1.82.18 2.63-.03a4.83 4.83 0 0 0 2.3-1.21c.55-.57.85-1.23 1.15-1.89A9.49 9.49 0 0 0 29.45 32V19.97ZM32.18 26.88l-.02-.04c.33-.09.73-.07 1.16 0v-1.77H30.8v2.52h2.24c-.28-.24-.56-.48-.86-.7ZM33.32 21.37H30.8v2.52h2.52v-2.52ZM33.32 17.65h-.52c-.97 1.16-1.85 2.28-2 2.28v.25h2.52v-2.53ZM37.2 26.6v-2.52h-2.52v1.78c.7.14 1.48.42 2.28.74h.24ZM36.1 28.86v2.24h2.2c-.74-.73-1.43-1.5-2.2-2.24ZM34.68 20.18h2.52v-2.53h-2.52v2.53ZM38.52 26.6h2.53v-1.07c-.84-.32-1.68-.63-2.53-.91v1.98ZM38.52 21.37v2.52h1.26c.41-.12.84-.18 1.27-.2v-2.32h-2.53ZM38.52 16.35h2.53v-2.52h-2.53v2.52ZM38.52 20.18h2.53v-2.53h-2.53v2.53ZM42.98 21.63c.13-.1.28-.18.43-.26h-1v2.3c.88-.04 1.75.07 2.53.16V21.5l-1.96.13ZM44.94 12.45V9.93h-.34a124.06 124.06 0 0 0-2.19 1.4v1.12h2.53ZM42.41 16.35h2.53v-2.52H42.4v2.52ZM42.48 28.12c.19 0 .37 0 .56-.02.75-.1 1.49-.39 1.83-.97a9.07 9.07 0 0 1-1.28-.32l-.65-.21h-.46v1.52ZM46.25 12.45h2.53V9.93h-2.53v2.52ZM48.78 16.82h-2.53v1.94c.8-.23 1.68-.42 2.53-.58v-1.36ZM50.1 16.61h2.53V14.1h-1.48l-1.04.28v2.24ZM53.85 7.12v2.52h.97c.57-.33 1.08-.67 1.55-1.03v-1.5h-2.52ZM55.98 14.09c.44-.58.77-1.2.9-1.85-.56.26-1.13.48-1.7.67v1.18h.8ZM59.82 1.93c.13-.64.18-1.3.15-1.93-.6.56-1.25 1.05-1.9 1.5v.43h1.75ZM68.42.25H71v14.69h-2.57V.24ZM72.89 4.3h2.22v1.56l.04.04a3.81 3.81 0 0 1 3.31-1.89c2.3 0 3.77 1.24 3.77 3.62v7.31h-2.35V8.25c-.04-1.67-.7-2.39-2.07-2.39-1.57 0-2.58 1.24-2.58 2.8v6.28H72.9V4.3Z" fill="#fff"/><path fill-rule="evenodd" clip-rule="evenodd" d="M91.57 14.94h2.23V.24h-2.35v5.44h-.04C90.69 4.5 89.2 4 87.87 4c-2.33 0-4.61 1.69-4.61 5.54 0 3.19 1.62 5.68 4.98 5.68 1.34 0 2.67-.52 3.29-1.73h.04v1.44Zm-.04-5.33c0 1.85-.88 3.76-2.98 3.76-2.04 0-2.95-1.8-2.95-3.64 0-1.91.79-3.87 2.99-3.87 1.8 0 2.94 1.4 2.94 3.75ZM97.25 10.23c0 1.66.9 3.15 2.86 3.15 1.36 0 2.18-.6 2.6-1.77h2.22c-.52 2.32-2.5 3.62-4.82 3.62-3.33 0-5.2-2.33-5.2-5.6C94.9 6.6 96.88 4 100.05 4c3.36 0 5.42 3.03 5.02 6.22h-7.82Zm5.48-1.55c-.08-1.48-1.1-2.82-2.68-2.82-1.62 0-2.74 1.24-2.8 2.82h5.48ZM108.22 4.3H106v14.57h2.34v-5.3h.05c.74 1.16 2.2 1.66 3.56 1.66 3.15 0 4.58-2.7 4.58-5.56 0-3.1-1.62-5.66-4.97-5.66-1.36 0-2.64.52-3.3 1.73h-.04V4.3Zm.04 5.33c0-2.26 1.01-3.77 2.99-3.77 1.93 0 2.94 1.84 2.94 3.77 0 1.85-.8 3.75-2.94 3.75-1.9 0-2.99-1.6-2.99-3.75ZM119.42 10.23c0 1.66.9 3.15 2.86 3.15 1.36 0 2.18-.6 2.6-1.77h2.21c-.51 2.32-2.49 3.62-4.81 3.62-3.34 0-5.21-2.33-5.21-5.6 0-3.02 1.98-5.62 5.15-5.62 3.35 0 5.4 3.03 5.02 6.22h-7.82Zm5.47-1.55c-.08-1.48-1.09-2.82-2.67-2.82-1.63 0-2.74 1.24-2.8 2.82h5.47Z" fill="#fff"/><path d="M130.32 4.3h-2.22v10.64h2.34V8.66c0-1.56 1.02-2.8 2.58-2.8 1.38 0 2.04.72 2.08 2.39v6.69h2.34v-7.3c0-2.4-1.46-3.63-3.76-3.63-1.4 0-2.62.72-3.31 1.9l-.05-.05V4.3Z" fill="#fff"/><path fill-rule="evenodd" clip-rule="evenodd" d="M149 14.94h-2.22V13.5h-.04c-.62 1.21-1.95 1.73-3.3 1.73-3.34 0-4.97-2.5-4.97-5.68 0-3.85 2.28-5.54 4.61-5.54 1.34 0 2.82.5 3.54 1.67h.04V.25H149v14.69Zm-5.24-1.57c2.1 0 2.98-1.9 2.98-3.76 0-2.35-1.13-3.75-2.94-3.75-2.2 0-2.99 1.96-2.99 3.87 0 1.83.91 3.64 2.95 3.64ZM155.32 13.38c-1.95 0-2.86-1.49-2.86-3.15h7.82c.4-3.2-1.66-6.22-5.02-6.22-3.16 0-5.14 2.6-5.14 5.62 0 3.27 1.87 5.6 5.2 5.6 2.33 0 4.3-1.3 4.82-3.62h-2.22c-.41 1.17-1.24 1.77-2.6 1.77Zm-.06-7.52c1.59 0 2.6 1.34 2.68 2.82h-5.48c.06-1.58 1.18-2.82 2.8-2.82Z" fill="#fff"/><path d="M161.15 4.3h2.22v1.56l.04.04a3.81 3.81 0 0 1 3.31-1.89c2.31 0 3.77 1.24 3.77 3.62v7.31h-2.34V8.25c-.04-1.67-.7-2.39-2.08-2.39-1.56 0-2.57 1.24-2.57 2.8v6.28h-2.35V4.3ZM172.73 4.3h-1.77v1.75h1.77v6.27c.04 1.78.5 2.72 2.95 2.72.34 0 .68-.04 1.02-.07l.5-.05V13.1c-.33.08-.66.08-1 .08-1.04 0-1.12-.5-1.12-1.46V6.05h2.12V4.3h-2.12V1.1h-2.35v3.2ZM69.39 23.92v-5.74h5.18c1.06 0 1.85.26 2.36.78.52.52.78 1.22.78 2.12a2.66 2.66 0 0 1-.94 2.08 3.14 3.14 0 0 1-2.2.76h-5.18ZM68 17v14.56h1.39V25.1h5.26c.65-.03 1.16.08 1.53.32.38.25.67.58.86.98.2.4.33.85.38 1.37a18.8 18.8 0 0 1 .19 2.06l.04.63.1.61c.05.2.12.36.2.5h1.53a2.06 2.06 0 0 1-.36-.74 7.97 7.97 0 0 1-.19-1.02c-.04-.37-.06-.73-.08-1.08l-.04-.9a6.38 6.38 0 0 0-.18-1.2 2.65 2.65 0 0 0-.43-1 2.18 2.18 0 0 0-.76-.7 3.1 3.1 0 0 0-1.18-.38v-.04a3.26 3.26 0 0 0 2.12-1.3c.48-.69.72-1.5.72-2.42 0-.65-.13-1.21-.37-1.69a3.05 3.05 0 0 0-.96-1.18 3.9 3.9 0 0 0-1.4-.7 6.21 6.21 0 0 0-1.7-.22H68ZM88.11 25.57H81.3c.05-.48.16-.94.33-1.39.17-.46.4-.86.69-1.2a3.11 3.11 0 0 1 2.45-1.17 3.1 3.1 0 0 1 2.43 1.16 4.45 4.45 0 0 1 .92 2.6Zm-6.81 1.08h8.1a8.22 8.22 0 0 0-.2-2.16 5.32 5.32 0 0 0-.82-1.9c-.37-.56-.85-1-1.45-1.35a4.31 4.31 0 0 0-2.16-.5c-.83 0-1.55.16-2.16.48-.6.32-1.1.74-1.47 1.27-.38.51-.67 1.1-.86 1.77a8.48 8.48 0 0 0 0 4.18c.19.67.48 1.26.86 1.78.38.5.87.9 1.47 1.2.6.29 1.33.43 2.16.43 1.33 0 2.36-.33 3.08-.98a5.1 5.1 0 0 0 1.5-2.77h-1.28c-.2.81-.57 1.47-1.1 1.95-.53.5-1.26.74-2.2.74-.61 0-1.14-.13-1.57-.39-.44-.26-.8-.58-1.08-.98-.29-.4-.5-.83-.64-1.32-.12-.5-.18-.99-.18-1.45ZM96.61 24.12h1.28a3.8 3.8 0 0 0-.34-1.49 3.29 3.29 0 0 0-2.04-1.7c-.45-.13-.94-.2-1.47-.2-.46 0-.93.06-1.4.17-.47.1-.9.27-1.27.5-.38.24-.7.54-.94.92-.23.38-.35.84-.35 1.37 0 .45.08.83.23 1.14.15.3.35.56.6.78.28.2.6.38.95.53.35.13.74.26 1.16.37l1.65.36c.29.07.57.15.84.25a3 3 0 0 1 .75.36c.22.14.39.32.51.54.14.2.2.46.2.77 0 .37-.09.68-.28.94-.18.24-.4.45-.7.61-.28.16-.6.28-.93.35-.33.07-.65.1-.96.1-.86 0-1.58-.22-2.16-.65a2.58 2.58 0 0 1-.94-1.98h-1.28c.1 1.29.54 2.23 1.3 2.81.78.59 1.78.88 3.02.88.49 0 .99-.05 1.49-.16s.95-.29 1.34-.53c.41-.26.75-.59 1-.98.26-.41.4-.9.4-1.47a2.58 2.58 0 0 0-.97-2.06 4.43 4.43 0 0 0-2.04-.86l-1.71-.39a3.86 3.86 0 0 1-1.43-.55c-.22-.13-.4-.3-.55-.49a1.3 1.3 0 0 1-.2-.73c0-.34.07-.63.22-.86.15-.23.35-.41.6-.55.24-.15.5-.25.79-.3a3.95 3.95 0 0 1 1.92.04 2.28 2.28 0 0 1 1.46 1.14c.15.28.24.62.25 1.02ZM106.88 25.57h-6.81c.05-.48.16-.94.32-1.39.18-.46.41-.86.7-1.2a3.11 3.11 0 0 1 3.83-.84 3.58 3.58 0 0 1 1.7 2.02c.16.45.25.92.26 1.4Zm-6.81 1.08h8.1a8.15 8.15 0 0 0-.21-2.16 5.3 5.3 0 0 0-.82-1.9c-.36-.56-.85-1-1.44-1.35a4.3 4.3 0 0 0-2.17-.5c-.83 0-1.55.16-2.16.48-.6.32-1.09.74-1.47 1.27-.38.51-.66 1.1-.85 1.77a8.48 8.48 0 0 0 0 4.18c.19.67.47 1.26.85 1.78.38.5.87.9 1.47 1.2.61.29 1.33.43 2.16.43 1.34 0 2.36-.33 3.08-.98a5.1 5.1 0 0 0 1.51-2.77h-1.28c-.2.81-.57 1.47-1.1 1.95-.53.5-1.27.74-2.2.74-.62 0-1.14-.13-1.58-.39-.43-.26-.8-.58-1.08-.98a4.1 4.1 0 0 1-.63-1.32 6.1 6.1 0 0 1-.18-1.45ZM109.07 21.04v10.52h1.29v-5.6a3.97 3.97 0 0 1 1.08-2.76 3.77 3.77 0 0 1 2.84-1.02V20.9a4.02 4.02 0 0 0-2.47.63 4.06 4.06 0 0 0-1.51 1.98h-.04v-2.47h-1.19Z" fill="#fff"/><path d="m113.5 21.04 4.07 10.52h1.36l3.94-10.52h-1.33l-3.26 9.24h-.04l-3.3-9.24h-1.43ZM130.89 25.57h-6.82c.06-.48.17-.94.33-1.39.18-.46.4-.86.7-1.2a3.12 3.12 0 0 1 3.83-.84 3.58 3.58 0 0 1 1.7 2.02c.15.45.24.92.26 1.4Zm-6.82 1.08h8.1a8.24 8.24 0 0 0-.2-2.16 5.3 5.3 0 0 0-.82-1.9c-.37-.56-.85-1-1.45-1.35a4.3 4.3 0 0 0-2.16-.5c-.83 0-1.55.16-2.16.48-.6.32-1.09.74-1.47 1.27-.38.51-.67 1.1-.86 1.77a8.47 8.47 0 0 0 0 4.18c.2.67.48 1.26.86 1.78.38.5.87.9 1.47 1.2.61.29 1.33.43 2.16.43 1.33 0 2.36-.33 3.08-.98a5.1 5.1 0 0 0 1.51-2.77h-1.28c-.2.81-.58 1.47-1.1 1.95-.54.5-1.27.74-2.21.74-.61 0-1.14-.13-1.57-.39-.44-.26-.8-.58-1.08-.98-.29-.4-.5-.83-.63-1.32-.13-.5-.19-.99-.19-1.45Z" fill="#fff"/></svg>